<svg width="156" height="156" viewBox="0 0 156 156" fill="none" xmlns="http://www.w3.org/2000/svg">
<path d="M95.6853 93.5244C95.6853 93.5244 84.0206 99.5425 78.285 99.0539C72.4218 98.5548 60.8811 93.6257 60.8811 93.6257C61.8381 102.21 67.4884 107.787 73.9091 112.611C74.7433 113.238 74.2156 114.543 73.1895 114.353C39.1288 108.056 10.6825 78.614 3.70072 44.8573C3.4909 43.8428 4.74774 43.2931 5.37098 44.1206C19.377 62.7168 33.4798 83.7786 56.7099 91.0591C43.0978 80.8747 32.7801 68.9311 28.0068 53.0057C27.6909 51.952 29.0305 51.3453 29.6718 52.2391C40.9911 68.0178 57.6631 85.7633 77.2814 86.4144C99.2117 87.1424 114.545 67.432 127.053 51.3156C127.698 50.4835 128.95 51.0751 128.677 52.0924C124.356 68.1986 114.006 81.6866 99.9123 90.9806C122.29 80.6044 134.812 61.6288 150.556 43.7363C151.229 42.9717 152.434 43.5883 152.192 44.5776C143.73 79.152 118.077 105.965 83.5459 114.074C82.5042 114.319 81.9157 112.983 82.7663 112.333C89.0872 107.509 94.7762 101.835 95.6853 93.5244Z" fill="#FF5500"/>
</svg>
