<svg preserveAspectRatio="none" width="100%" height="100%" overflow="visible" style="display: block;" viewBox="0 0 1320 195" fill="none" xmlns="http://www.w3.org/2000/svg">
<g id="Union">
<path fill-rule="evenodd" clip-rule="evenodd" d="M215.82 48.5464C241.393 1.85627 303.047 -13.0699 348.824 12.1691C371.446 24.705 388.197 45.6911 395.419 70.5461C398.468 81.1286 400.46 94.0901 399.489 104.907C396.066 143.02 370.146 178.072 333.692 190.467C322.607 194.236 313.224 195 301.563 195C286.819 195 274.867 193.207 261.039 187.19C234.98 175.56 215.364 153.023 207.421 125.589C200.117 99.7908 203.13 72.1602 215.82 48.5464ZM365.154 90.6246C361.217 55.2795 329.418 29.812 294.108 33.725C258.758 37.6425 233.283 69.5214 237.225 104.907C241.168 140.294 273.033 165.772 308.377 161.796C343.68 157.825 369.092 125.969 365.154 90.6246Z" fill="var(--fill-0, #0C0A09)"/>
<path d="M215.699 4.69297C211.149 19.8949 205.272 35.8262 200.141 50.9322L170.648 136.577C164.999 152.604 156.116 175.201 151.752 191.082C144.211 191.097 89.3054 192.255 87.2126 190.052C84.2729 186.957 39.284 55.0298 33.8758 38.7793C28.5464 38.2865 11.9706 37.3904 11.8773 37.3853L0 4.69487L59.5343 5.70382C59.5343 5.70382 67.2055 26.9155 68.8382 31.6825L96.2775 111.46C99.4034 120.547 102.506 129.633 105.72 138.698C107.53 143.927 108.848 147.848 113.838 150.705C120.503 154.518 128.38 149.116 130.83 142.789C134.75 132.666 138.081 121.969 141.657 111.693L167.932 36.2607C171.161 27.1871 175.441 13.121 179.147 4.75366C191.331 4.64778 203.516 4.62858 215.699 4.69297Z" fill="var(--fill-0, #0C0A09)"/>
<path d="M598.723 6.05468C601.176 3.67497 655.373 4.64606 663.423 4.65884C666.111 9.41702 670.055 21.9725 672.124 28.007L687.316 72.6664L709.718 137.537C715.352 153.407 722.301 171.624 727.135 187.761C727.631 188.921 727.754 189.205 727.541 190.503C726.117 191.665 695.696 191.069 691.409 191.042C688.154 184.576 681.392 163.307 678.723 155.497L656.243 90.105C651.951 77.4695 647.799 64.7079 643.135 52.2105C641.836 48.9667 639.986 46.0429 636.469 44.8899C620.948 39.8028 619.124 54.5901 615.262 65.3268C612.906 71.8767 611.054 77.9872 608.833 84.2106C601.468 104.261 594.375 124.411 587.557 144.655C582.31 159.953 577.291 175.765 571.365 190.769C568.705 191.323 546.629 191.135 543 191.135L456.706 190.558C452.607 187.625 414.972 149.458 411.167 144.681L411.212 50.3082C411.204 39.0749 410.437 14.6877 411.622 4.71573L444.705 4.64556L444.622 79.2587C444.604 92.2061 444.602 105.109 444.652 118.212C445.006 130.973 461.452 140.889 469.133 150.1C478.201 160.975 500.062 156.688 513.187 157.303C523.293 157.776 535.693 157.343 545.818 156.956C547.564 153.976 554.801 131.773 556.548 126.661L584.456 45.7585C587.181 37.8076 595.561 11.6929 598.723 6.05468Z" fill="var(--fill-0, #0C0A09)"/>
<path d="M1164.88 4.63418C1165.52 10.5194 1165.24 20.6768 1165.24 26.778L1165.25 191.118L1131.64 191.123C1131.26 183.641 1131.32 175.167 1131.45 167.612C1132.45 113.594 1129.99 58.6137 1131.67 4.69866L1164.88 4.63418Z" fill="var(--fill-0, #0C0A09)"/>
<path d="M935.381 4.74228C955.433 4.20073 977.818 4.67668 998.018 4.6759L1120.01 4.62849C1120.51 15.1131 1120.23 28.0684 1120.1 38.6617C1101.79 37.4492 1082.55 39.1792 1064.35 38.2331C1039.65 36.9492 1044.09 53.8716 1044.15 72.27L1044.27 191.12L1011.05 191.084C1010.47 178.718 1010.79 164.417 1010.79 151.924L1010.74 86.2076C1010.72 74.1384 1011.4 61.2195 1010.5 49.3145C1009.44 35.1039 987.505 38.2909 977.914 38.3013C963.625 38.3748 949.336 38.3734 935.047 38.2956C934.944 30.7872 934.382 11.5562 935.381 4.74228Z" fill="var(--fill-0, #0C0A09)"/>
<path d="M890.891 5.60141C893.102 3.95679 918.976 4.64957 923.671 4.6759L923.633 138.686L923.768 173.069C923.787 176.952 924.001 187.629 923.42 191.012C909.756 191.144 896.091 191.129 882.427 190.968C880.778 189.394 879.386 187.612 877.988 185.794C849.957 149.353 822.061 112.693 793.148 76.9658C787.296 69.7329 778.691 73.5557 773.374 79.0501C770.789 86.6722 771.82 95.3066 771.595 103.238C770.776 132.12 772.909 162.386 771.407 191.112L738.163 191.05C737.473 180.711 738.022 162.882 738.028 152.053L738.093 75.5757L738.007 30.078C737.988 24.2033 737.666 9.95554 738.555 4.74039C751.388 4.3195 766.226 4.68014 779.213 4.67401C802.835 31.1337 823.48 64.1922 846.767 91.26C856.506 99.8501 865.645 126.229 881.384 122.01C884.265 121.238 887.494 118.538 888.435 115.792C893.347 101.46 886.509 13.6626 890.891 5.60141Z" fill="var(--fill-0, #0C0A09)"/>
<path d="M1189.36 19.4024C1208.14 0.584282 1232.58 4.62219 1257.06 4.63039L1316.07 4.68539C1315.86 15.7622 1316.21 26.9714 1315.96 38.1837C1299.22 39.5568 1225.31 35.595 1216.4 40.4425C1213.92 41.7867 1211.69 43.9404 1210.92 46.7105C1209.78 50.7586 1211.37 53.87 1213.33 57.3026C1229.13 66.8185 1244.99 76.2349 1260.91 85.5514C1276.14 94.5118 1298.43 105.704 1310.57 118.147C1315.59 123.286 1317.06 132.613 1320 137.046V154.213C1319.19 155.266 1318.23 158.195 1317.68 159.577C1315.15 165.949 1312.8 171.371 1307.89 176.353C1301.36 182.856 1293.16 187.415 1284.19 189.519C1276.78 191.212 1255.99 190.655 1247.44 190.649L1182.08 190.712C1181.92 179.618 1181.9 168.521 1182.06 157.426C1213.13 156.321 1244.79 158.751 1275.75 156.444C1279.01 156.201 1282.16 153.812 1284.67 151.951C1290.62 137.575 1275.97 133.739 1265.66 127.59L1222.03 101.708C1200.25 88.8212 1176.95 79.4216 1176.88 49.58C1176.79 38.2463 1181.3 27.3611 1189.36 19.4024Z" fill="var(--fill-0, #0C0A09)"/>
</g>
</svg>
